<svg width="17" height="17" viewBox="0 0 17 17" fill="none" xmlns="http://www.w3.org/2000/svg">
<path d="M5.01247 16.6667C4.59031 16.6667 4.23042 16.5192 3.9328 16.2242C3.63518 15.9292 3.48637 15.5746 3.48637 15.1604C3.48637 14.7461 3.63668 14.393 3.93731 14.101C4.23794 13.8089 4.59933 13.6629 5.02148 13.6629C5.44365 13.6629 5.80354 13.8104 6.10115 14.1054C6.39877 14.4004 6.54758 14.755 6.54758 15.1692C6.54758 15.5835 6.39727 15.9366 6.09665 16.2286C5.79601 16.5207 5.43462 16.6667 5.01247 16.6667ZM13.5158 16.6667C13.0937 16.6667 12.7338 16.5192 12.4361 16.2242C12.1385 15.9292 11.9897 15.5746 11.9897 15.1604C11.9897 14.7461 12.14 14.393 12.4407 14.101C12.7413 13.8089 13.1027 13.6629 13.5248 13.6629C13.947 13.6629 14.3069 13.8104 14.6045 14.1054C14.9021 14.4004 15.0509 14.755 15.0509 15.1692C15.0509 15.5835 14.9006 15.9366 14.6 16.2286C14.2994 16.5207 13.938 16.6667 13.5158 16.6667ZM3.91154 2.89946L6.24996 7.6554L12.3724 7.6554L15.0297 2.89946L3.91154 2.89946ZM3.27379 1.64789L15.7965 1.64789C16.122 1.64789 16.3696 1.79391 16.5394 2.08594C16.7092 2.37797 16.7091 2.67 16.539 2.96204L13.6691 8.03087C13.5132 8.29509 13.3109 8.50716 13.062 8.66708C12.8132 8.82701 12.5408 8.90697 12.2448 8.90697L5.80354 8.90697L4.61307 11.0763L15.0509 11.0763L15.0509 12.3279L4.80439 12.3279C4.20916 12.3279 3.78045 12.1332 3.51826 11.7438C3.25607 11.3545 3.25962 10.9164 3.52889 10.4297L4.88943 7.96829L1.65815 1.25156L0 1.25156L0 0L2.48723 0L3.27379 1.64789Z" fill="#154686"/>
</svg>
