<svg width="17" height="17" viewBox="0 0 17 17" fill="none" xmlns="http://www.w3.org/2000/svg">
<path d="M8.1323 17C7.42951 17 6.77274 16.9335 6.16198 16.8006C5.55122 16.6677 4.98647 16.4683 4.46775 16.2025C5.00321 14.2254 5.73528 12.3106 6.66397 10.458C7.59266 8.60553 8.84346 7.05623 10.4164 5.81015C8.54227 6.70733 6.91497 7.95341 5.53448 9.5484C4.154 11.1434 3.21276 12.9544 2.71077 14.9813C2.64384 14.9149 2.58109 14.8567 2.52252 14.8069C2.46395 14.757 2.40121 14.6989 2.33427 14.6324C1.58128 13.8848 1.00399 13.0291 0.602393 12.0655C0.200798 11.1019 0 10.0884 0 9.02505C0 7.87865 0.217531 6.77379 0.652592 5.71046C1.08765 4.64713 1.71515 3.70841 2.53507 2.8943C3.82352 1.58176 5.49684 0.730268 7.55501 0.339828C9.61319 -0.0506127 12.6921 -0.10461 16.7917 0.177836C17.1096 4.13208 17.0636 7.16423 16.6537 9.27427C16.2437 11.3843 15.3694 13.1039 14.0307 14.4331C13.2275 15.2638 12.3156 15.8993 11.2949 16.3396C10.2741 16.7799 9.21996 17 8.1323 17Z" fill="#00B54A"/>
</svg>
