<svg width="24" height="24" viewBox="0 0 24 24" fill="none" xmlns="http://www.w3.org/2000/svg">
<path d="M7.01496 22C6.50837 22 6.0765 21.823 5.71936 21.469C5.36222 21.115 5.18365 20.6895 5.18365 20.1924C5.18365 19.6954 5.36402 19.2716 5.72477 18.9212C6.08553 18.5707 6.5192 18.3955 7.02578 18.3955C7.53238 18.3955 7.96424 18.5725 8.32138 18.9265C8.67852 19.2805 8.85709 19.706 8.85709 20.2031C8.85709 20.7001 8.67672 21.1239 8.31598 21.4743C7.95521 21.8248 7.52154 22 7.01496 22ZM17.219 22C16.7124 22 16.2805 21.823 15.9234 21.469C15.5662 21.115 15.3877 20.6895 15.3877 20.1924C15.3877 19.6954 15.568 19.2716 15.9288 18.9212C16.2895 18.5707 16.7232 18.3955 17.2298 18.3955C17.7364 18.3955 18.1683 18.5725 18.5254 18.9265C18.8825 19.2805 19.0611 19.706 19.0611 20.2031C19.0611 20.7001 18.8807 21.1239 18.52 21.4743C18.1592 21.8248 17.7256 22 17.219 22ZM5.69385 5.47935L8.49995 11.1865H15.8468L19.0356 5.47935H5.69385ZM4.92855 3.97747H19.9559C20.3464 3.97747 20.6435 4.15269 20.8473 4.50313C21.0511 4.85357 21.0509 5.20401 20.8468 5.55444L17.403 11.637C17.2159 11.9541 16.973 12.2086 16.6744 12.4005C16.3758 12.5924 16.0489 12.6884 15.6938 12.6884H7.96424L6.53568 15.2916H19.0611V16.7935H6.76527C6.05099 16.7935 5.53654 16.5599 5.22191 16.0926C4.90729 15.6254 4.91154 15.0997 5.23467 14.5156L6.86731 11.562L2.98978 3.50188H1V2H3.98468L4.92855 3.97747Z" fill="#121416"/>
</svg>
